<svg width="91" height="16" viewBox="0 0 91 16" fill="none" xmlns="http://www.w3.org/2000/svg">
<path d="M6.83599 1.27615C6.86947 1.19448 6.9265 1.12461 6.9998 1.07543C7.07311 1.02626 7.15939 1 7.24766 1C7.33593 1 7.42221 1.02626 7.49551 1.07543C7.56882 1.12461 7.62584 1.19448 7.65932 1.27615L9.34162 5.32236C9.37311 5.39807 9.42487 5.46363 9.49122 5.51182C9.55757 5.56 9.63592 5.58896 9.71766 5.59549L14.0861 5.9454C14.4811 5.97707 14.641 6.47028 14.3402 6.72757L11.012 9.57915C10.9499 9.63234 10.9035 9.70163 10.8781 9.77941C10.8527 9.85719 10.8492 9.94047 10.8679 10.0201L11.8852 14.2832C11.9057 14.3688 11.9003 14.4584 11.8698 14.5409C11.8394 14.6234 11.7851 14.695 11.7139 14.7467C11.6428 14.7984 11.5579 14.8278 11.47 14.8313C11.3822 14.8347 11.2952 14.8121 11.2202 14.7662L7.47962 12.4822C7.40974 12.4396 7.32949 12.4171 7.24766 12.4171C7.16583 12.4171 7.08558 12.4396 7.0157 12.4822L3.27507 14.7669C3.20007 14.8129 3.11314 14.8355 3.02527 14.832C2.9374 14.8286 2.85252 14.7992 2.78137 14.7475C2.71021 14.6958 2.65596 14.6242 2.62547 14.5417C2.59499 14.4592 2.58963 14.3696 2.61007 14.284L3.62737 10.0201C3.64623 9.94047 3.64276 9.85716 3.61734 9.77937C3.59192 9.70157 3.54553 9.63229 3.48328 9.57915L0.155116 6.72757C0.0884682 6.67026 0.0402531 6.59453 0.0165342 6.50989C-0.00718481 6.42525 -0.00534857 6.33549 0.0218119 6.25189C0.0489724 6.1683 0.100244 6.0946 0.16918 6.04006C0.238116 5.98553 0.321637 5.95259 0.409241 5.9454L4.77766 5.59549C4.8594 5.58896 4.93775 5.56 5.0041 5.51182C5.07044 5.46363 5.12221 5.39807 5.1537 5.32236L6.83599 1.27615Z" fill="#4D6A6D"/>
<path d="M82.836 1.27615C82.8695 1.19448 82.9265 1.12461 82.9998 1.07543C83.0731 1.02626 83.1594 1 83.2477 1C83.3359 1 83.4222 1.02626 83.4955 1.07543C83.5688 1.12461 83.6258 1.19448 83.6593 1.27615L85.3416 5.32236C85.3731 5.39807 85.4249 5.46363 85.4912 5.51182C85.5576 5.56 85.6359 5.58896 85.7177 5.59549L90.0861 5.9454C90.4811 5.97707 90.641 6.47028 90.3402 6.72757L87.012 9.57915C86.9499 9.63234 86.9035 9.70163 86.8781 9.77941C86.8527 9.85719 86.8492 9.94047 86.8679 10.0201L87.8852 14.2832C87.9057 14.3688 87.9003 14.4584 87.8698 14.5409C87.8394 14.6234 87.7851 14.695 87.7139 14.7467C87.6428 14.7984 87.5579 14.8278 87.47 14.8313C87.3822 14.8347 87.2952 14.8121 87.2202 14.7662L83.4796 12.4822C83.4097 12.4396 83.3295 12.4171 83.2477 12.4171C83.1658 12.4171 83.0856 12.4396 83.0157 12.4822L79.2751 14.7669C79.2001 14.8129 79.1131 14.8355 79.0253 14.832C78.9374 14.8286 78.8525 14.7992 78.7814 14.7475C78.7102 14.6958 78.656 14.6242 78.6255 14.5417C78.595 14.4592 78.5896 14.3696 78.6101 14.284L79.6274 10.0201C79.6462 9.94047 79.6428 9.85716 79.6173 9.77937C79.5919 9.70157 79.5455 9.63229 79.4833 9.57915L76.1551 6.72757C76.0885 6.67026 76.0403 6.59453 76.0165 6.50989C75.9928 6.42525 75.9947 6.33549 76.0218 6.25189C76.049 6.1683 76.1002 6.0946 76.1692 6.04006C76.2381 5.98553 76.3216 5.95259 76.4092 5.9454L80.7777 5.59549C80.8594 5.58896 80.9378 5.56 81.0041 5.51182C81.0704 5.46363 81.1222 5.39807 81.1537 5.32236L82.836 1.27615Z" stroke="#4D6A6D" stroke-linecap="round" stroke-linejoin="round"/>
<path d="M63.836 1.27615C63.8695 1.19448 63.9265 1.12461 63.9998 1.07543C64.0731 1.02626 64.1594 1 64.2477 1C64.3359 1 64.4222 1.02626 64.4955 1.07543C64.5688 1.12461 64.6258 1.19448 64.6593 1.27615L66.3416 5.32236C66.3731 5.39807 66.4249 5.46363 66.4912 5.51182C66.5576 5.56 66.6359 5.58896 66.7177 5.59549L71.0861 5.9454C71.4811 5.97707 71.641 6.47028 71.3402 6.72757L68.012 9.57915C67.9499 9.63234 67.9035 9.70163 67.8781 9.77941C67.8527 9.85719 67.8492 9.94047 67.8679 10.0201L68.8852 14.2832C68.9057 14.3688 68.9003 14.4584 68.8698 14.5409C68.8394 14.6234 68.7851 14.695 68.7139 14.7467C68.6428 14.7984 68.5579 14.8278 68.47 14.8313C68.3822 14.8347 68.2952 14.8121 68.2202 14.7662L64.4796 12.4822C64.4097 12.4396 64.3295 12.4171 64.2477 12.4171C64.1658 12.4171 64.0856 12.4396 64.0157 12.4822L60.2751 14.7669C60.2001 14.8129 60.1131 14.8355 60.0253 14.832C59.9374 14.8286 59.8525 14.7992 59.7814 14.7475C59.7102 14.6958 59.656 14.6242 59.6255 14.5417C59.595 14.4592 59.5896 14.3696 59.6101 14.284L60.6274 10.0201C60.6462 9.94047 60.6428 9.85716 60.6173 9.77937C60.5919 9.70157 60.5455 9.63229 60.4833 9.57915L57.1551 6.72757C57.0885 6.67026 57.0403 6.59453 57.0165 6.50989C56.9928 6.42525 56.9947 6.33549 57.0218 6.25189C57.049 6.1683 57.1002 6.0946 57.1692 6.04006C57.2381 5.98553 57.3216 5.95259 57.4092 5.9454L61.7777 5.59549C61.8594 5.58896 61.9378 5.56 62.0041 5.51182C62.0704 5.46363 62.1222 5.39807 62.1537 5.32236L63.836 1.27615Z" stroke="#4D6A6D" stroke-linecap="round" stroke-linejoin="round"/>
<path d="M44.836 1.27615C44.8695 1.19448 44.9265 1.12461 44.9998 1.07543C45.0731 1.02626 45.1594 1 45.2477 1C45.3359 1 45.4222 1.02626 45.4955 1.07543C45.5688 1.12461 45.6258 1.19448 45.6593 1.27615L47.3416 5.32236C47.3731 5.39807 47.4249 5.46363 47.4912 5.51182C47.5576 5.56 47.6359 5.58896 47.7177 5.59549L52.0861 5.9454C52.4811 5.97707 52.641 6.47028 52.3402 6.72757L49.012 9.57915C48.9499 9.63234 48.9035 9.70163 48.8781 9.77941C48.8527 9.85719 48.8492 9.94047 48.8679 10.0201L49.8852 14.2832C49.9057 14.3688 49.9003 14.4584 49.8698 14.5409C49.8394 14.6234 49.7851 14.695 49.7139 14.7467C49.6428 14.7984 49.5579 14.8278 49.47 14.8313C49.3822 14.8347 49.2952 14.8121 49.2202 14.7662L45.4796 12.4822C45.4097 12.4396 45.3295 12.4171 45.2477 12.4171C45.1658 12.4171 45.0856 12.4396 45.0157 12.4822L41.2751 14.7669C41.2001 14.8129 41.1131 14.8355 41.0253 14.832C40.9374 14.8286 40.8525 14.7992 40.7814 14.7475C40.7102 14.6958 40.656 14.6242 40.6255 14.5417C40.595 14.4592 40.5896 14.3696 40.6101 14.284L41.6274 10.0201C41.6462 9.94047 41.6428 9.85716 41.6173 9.77937C41.5919 9.70157 41.5455 9.63229 41.4833 9.57915L38.1551 6.72757C38.0885 6.67026 38.0403 6.59453 38.0165 6.50989C37.9928 6.42525 37.9947 6.33549 38.0218 6.25189C38.049 6.1683 38.1002 6.0946 38.1692 6.04006C38.2381 5.98553 38.3216 5.95259 38.4092 5.9454L42.7777 5.59549C42.8594 5.58896 42.9378 5.56 43.0041 5.51182C43.0704 5.46363 43.1222 5.39807 43.1537 5.32236L44.836 1.27615Z" stroke="#4D6A6D" stroke-linecap="round" stroke-linejoin="round"/>
<path d="M25.836 1.27615C25.8695 1.19448 25.9265 1.12461 25.9998 1.07543C26.0731 1.02626 26.1594 1 26.2477 1C26.3359 1 26.4222 1.02626 26.4955 1.07543C26.5688 1.12461 26.6258 1.19448 26.6593 1.27615L28.3416 5.32236C28.3731 5.39807 28.4249 5.46363 28.4912 5.51182C28.5576 5.56 28.6359 5.58896 28.7177 5.59549L33.0861 5.9454C33.4811 5.97707 33.641 6.47028 33.3402 6.72757L30.012 9.57915C29.9499 9.63234 29.9035 9.70163 29.8781 9.77941C29.8527 9.85719 29.8492 9.94047 29.8679 10.0201L30.8852 14.2832C30.9057 14.3688 30.9003 14.4584 30.8698 14.5409C30.8394 14.6234 30.7851 14.695 30.7139 14.7467C30.6428 14.7984 30.5579 14.8278 30.47 14.8313C30.3822 14.8347 30.2952 14.8121 30.2202 14.7662L26.4796 12.4822C26.4097 12.4396 26.3295 12.4171 26.2477 12.4171C26.1658 12.4171 26.0856 12.4396 26.0157 12.4822L22.2751 14.7669C22.2001 14.8129 22.1131 14.8355 22.0253 14.832C21.9374 14.8286 21.8525 14.7992 21.7814 14.7475C21.7102 14.6958 21.656 14.6242 21.6255 14.5417C21.595 14.4592 21.5896 14.3696 21.6101 14.284L22.6274 10.0201C22.6462 9.94047 22.6428 9.85716 22.6173 9.77937C22.5919 9.70157 22.5455 9.63229 22.4833 9.57915L19.1551 6.72757C19.0885 6.67026 19.0403 6.59453 19.0165 6.50989C18.9928 6.42525 18.9947 6.33549 19.0218 6.25189C19.049 6.1683 19.1002 6.0946 19.1692 6.04006C19.2381 5.98553 19.3216 5.95259 19.4092 5.9454L23.7777 5.59549C23.8594 5.58896 23.9378 5.56 24.0041 5.51182C24.0704 5.46363 24.1222 5.39807 24.1537 5.32236L25.836 1.27615Z" fill="#4D6A6D"/>
</svg>
