<svg width="28" height="35" viewBox="0 0 28 35" fill="none" xmlns="http://www.w3.org/2000/svg">
<path d="M4.82 23.74L4.8 23.56C5.36 23.5067 5.80667 23.0467 6.14 22.18C6.47333 21.3133 6.64 20.1733 6.64 18.76V6.8C6.64 6.32 6.49333 5.93333 6.2 5.64C5.90667 5.34667 5.52 5.2 5.04 5.2H5V5H11.28V5.2H11.26C10.78 5.2 10.3933 5.34667 10.1 5.64C9.80667 5.93333 9.66 6.32 9.66 6.8V18.76C9.66 19.6667 9.45333 20.48 9.04 21.2C8.64 21.92 8.07333 22.5 7.34 22.94C6.62 23.38 5.78 23.6467 4.82 23.74ZM11.0584 20L11.0784 19.8H11.0984C11.5784 19.8 11.9651 19.6733 12.2584 19.42C12.5518 19.1667 12.6984 18.8 12.6984 18.32V6.8C12.6984 6.32 12.5518 5.93333 12.2584 5.64C11.9651 5.34667 11.5784 5.2 11.0984 5.2L11.0784 5H21.7984L22.3984 9.02H22.1984C21.7984 6.51333 20.2184 5.26 17.4584 5.26H15.7784V11.04H17.5784C18.2451 11.04 18.7784 10.84 19.1784 10.44C19.5784 10.0267 19.7784 9.48667 19.7784 8.82H19.9784V13.74H19.7784C19.7651 13.02 19.5384 12.4333 19.0984 11.98C18.6584 11.5267 18.0784 11.3 17.3584 11.3H15.7784V18.32C15.7784 19.2667 16.2451 19.74 17.1784 19.74H18.0184C19.3118 19.74 20.3384 19.4067 21.0984 18.74C21.8584 18.0733 22.3451 17.0267 22.5584 15.6H22.7584L22.1584 20H11.0584Z" fill="white"/>
<path d="M7.09 30.71L7.39 30.98C7.30333 31.08 7.17667 31.1967 7.01 31.33C6.84333 31.4633 6.63333 31.59 6.38 31.71C6.13333 31.8233 5.84 31.92 5.5 32C5.16667 32.08 4.78667 32.12 4.36 32.12C3.68667 32.12 3.10667 32.0167 2.62 31.81C2.13333 31.5967 1.73333 31.32 1.42 30.98C1.10667 30.6333 0.873333 30.24 0.72 29.8C0.573333 29.3533 0.5 28.8967 0.5 28.43C0.5 27.89 0.593333 27.4033 0.78 26.97C0.966667 26.53 1.23 26.1567 1.57 25.85C1.91 25.5367 2.31667 25.2967 2.79 25.13C3.27 24.9633 3.8 24.88 4.38 24.88C4.78 24.88 5.13667 24.92 5.45 25C5.76333 25.08 6.03667 25.19 6.27 25.33C6.50333 25.47 6.69667 25.6367 6.85 25.83C7.01 26.0233 7.14 26.2333 7.24 26.46H6.5C6.45333 26.32 6.37 26.1833 6.25 26.05C6.13667 25.91 5.98667 25.7867 5.8 25.68C5.62 25.5733 5.41 25.4867 5.17 25.42C4.93667 25.3533 4.67667 25.32 4.39 25.32C3.97 25.32 3.58 25.3967 3.22 25.55C2.86667 25.7033 2.56 25.9167 2.3 26.19C2.04 26.4633 1.83667 26.79 1.69 27.17C1.55 27.5433 1.48 27.9567 1.48 28.41C1.48 28.8367 1.54667 29.2467 1.68 29.64C1.82 30.0333 2.02333 30.38 2.29 30.68C2.55667 30.98 2.89 31.22 3.29 31.4C3.69 31.58 4.15 31.67 4.67 31.67C5.60333 31.67 6.41 31.35 7.09 30.71ZM9.43789 25V32H8.58789V25H9.43789ZM16.1195 29.51C16.1195 29.8567 16.0595 30.19 15.9395 30.51C15.8195 30.8233 15.6461 31.1 15.4195 31.34C15.1995 31.58 14.9295 31.77 14.6095 31.91C14.2961 32.05 13.9428 32.12 13.5495 32.12C13.1495 32.12 12.7861 32.05 12.4595 31.91C12.1395 31.7633 11.8661 31.57 11.6395 31.33C11.4195 31.09 11.2461 30.8133 11.1195 30.5C10.9995 30.18 10.9395 29.85 10.9395 29.51C10.9395 29.1633 10.9995 28.8333 11.1195 28.52C11.2461 28.2 11.4195 27.92 11.6395 27.68C11.8661 27.44 12.1395 27.25 12.4595 27.11C12.7861 26.9633 13.1495 26.89 13.5495 26.89C13.9428 26.89 14.2961 26.9633 14.6095 27.11C14.9295 27.25 15.1995 27.44 15.4195 27.68C15.6461 27.92 15.8195 28.2 15.9395 28.52C16.0595 28.8333 16.1195 29.1633 16.1195 29.51ZM15.1695 29.51C15.1695 29.0433 15.1195 28.6667 15.0195 28.38C14.9195 28.0867 14.7895 27.86 14.6295 27.7C14.4695 27.54 14.2928 27.4333 14.0995 27.38C13.9061 27.32 13.7195 27.29 13.5395 27.29C13.3595 27.29 13.1728 27.32 12.9795 27.38C12.7861 27.4333 12.6061 27.54 12.4395 27.7C12.2795 27.86 12.1461 28.0867 12.0395 28.38C11.9395 28.6667 11.8895 29.0433 11.8895 29.51C11.8895 29.97 11.9395 30.3467 12.0395 30.64C12.1461 30.9267 12.2795 31.15 12.4395 31.31C12.6061 31.47 12.7861 31.58 12.9795 31.64C13.1728 31.6933 13.3595 31.72 13.5395 31.72C13.7195 31.72 13.9061 31.6933 14.0995 31.64C14.2928 31.58 14.4695 31.47 14.6295 31.31C14.7895 31.15 14.9195 30.9267 15.0195 30.64C15.1195 30.3467 15.1695 29.97 15.1695 29.51ZM20.6111 28.14H20.0411C20.0411 28.0533 20.0178 27.96 19.9711 27.86C19.9244 27.76 19.8511 27.67 19.7511 27.59C19.6511 27.5033 19.5278 27.4333 19.3811 27.38C19.2344 27.32 19.0611 27.29 18.8611 27.29C18.6611 27.29 18.4944 27.32 18.3611 27.38C18.2278 27.4333 18.1211 27.5033 18.0411 27.59C17.9611 27.67 17.9044 27.76 17.8711 27.86C17.8378 27.9533 17.8211 28.0433 17.8211 28.13C17.8211 28.3367 17.8944 28.4967 18.0411 28.61C18.1944 28.7233 18.3844 28.82 18.6111 28.9C18.8378 28.98 19.0811 29.0567 19.3411 29.13C19.6078 29.2033 19.8544 29.3 20.0811 29.42C20.3078 29.5333 20.4944 29.6867 20.6411 29.88C20.7944 30.0733 20.8711 30.33 20.8711 30.65C20.8711 31.09 20.7144 31.4467 20.4011 31.72C20.0944 31.9867 19.6344 32.12 19.0211 32.12C18.6811 32.12 18.3811 32.08 18.1211 32C17.8678 31.9133 17.6511 31.8 17.4711 31.66C17.2978 31.52 17.1678 31.3633 17.0811 31.19C16.9944 31.01 16.9511 30.8267 16.9511 30.64H17.6011C17.6011 30.72 17.6244 30.82 17.6711 30.94C17.7244 31.06 17.8078 31.18 17.9211 31.3C18.0411 31.4133 18.1911 31.5133 18.3711 31.6C18.5578 31.68 18.7844 31.72 19.0511 31.72C19.2644 31.72 19.4411 31.6933 19.5811 31.64C19.7211 31.58 19.8311 31.51 19.9111 31.43C19.9911 31.3433 20.0444 31.25 20.0711 31.15C20.1044 31.05 20.1211 30.9533 20.1211 30.86C20.1211 30.64 20.0478 30.4667 19.9011 30.34C19.7544 30.2133 19.5711 30.11 19.3511 30.03C19.1311 29.9433 18.8911 29.8667 18.6311 29.8C18.3778 29.7267 18.1411 29.6333 17.9211 29.52C17.7011 29.4067 17.5178 29.2567 17.3711 29.07C17.2244 28.8833 17.1511 28.63 17.1511 28.31C17.1511 28.0767 17.1944 27.8733 17.2811 27.7C17.3678 27.52 17.4844 27.37 17.6311 27.25C17.7844 27.13 17.9611 27.04 18.1611 26.98C18.3678 26.92 18.5878 26.89 18.8211 26.89C19.0678 26.89 19.2978 26.9233 19.5111 26.99C19.7311 27.05 19.9211 27.1367 20.0811 27.25C20.2478 27.3567 20.3778 27.4867 20.4711 27.64C20.5644 27.7933 20.6111 27.96 20.6111 28.14ZM26.6658 29.72H22.8658C22.8658 30.1267 22.9258 30.46 23.0458 30.72C23.1658 30.98 23.3158 31.1833 23.4958 31.33C23.6758 31.4767 23.8691 31.58 24.0758 31.64C24.2891 31.6933 24.4891 31.72 24.6758 31.72C24.8424 31.72 24.9924 31.7033 25.1258 31.67C25.2658 31.63 25.3991 31.5767 25.5258 31.51C25.6524 31.4433 25.7758 31.36 25.8958 31.26C26.0224 31.16 26.1558 31.05 26.2958 30.93L26.6158 31.25C26.3491 31.53 26.0358 31.7467 25.6758 31.9C25.3158 32.0467 24.9224 32.12 24.4958 32.12C24.0558 32.12 23.6724 32.0467 23.3458 31.9C23.0258 31.7467 22.7591 31.5467 22.5458 31.3C22.3391 31.0467 22.1824 30.7633 22.0758 30.45C21.9758 30.13 21.9258 29.8033 21.9258 29.47C21.9258 29.07 21.9858 28.7133 22.1058 28.4C22.2258 28.08 22.3924 27.81 22.6058 27.59C22.8191 27.3633 23.0691 27.1933 23.3558 27.08C23.6424 26.96 23.9558 26.9 24.2958 26.9C24.6158 26.9 24.9191 26.9533 25.2058 27.06C25.4924 27.1667 25.7424 27.3267 25.9558 27.54C26.1758 27.7533 26.3491 28.0233 26.4758 28.35C26.6024 28.6767 26.6658 29.0633 26.6658 29.51V29.72ZM22.8658 29.32H25.7958C25.7958 28.6733 25.6624 28.1667 25.3958 27.8C25.1358 27.4267 24.7691 27.24 24.2958 27.24C24.0491 27.24 23.8358 27.3 23.6558 27.42C23.4758 27.5333 23.3258 27.6867 23.2058 27.88C23.0924 28.0733 23.0058 28.2967 22.9458 28.55C22.8924 28.7967 22.8658 29.0533 22.8658 29.32Z" fill="white"/>
</svg>
