<svg width="28" height="35" viewBox="0 0 28 35" fill="none" xmlns="http://www.w3.org/2000/svg">
<path d="M4.82 23.74L4.8 23.56C5.36 23.5067 5.80667 23.0467 6.14 22.18C6.47333 21.3133 6.64 20.1733 6.64 18.76V6.8C6.64 6.32 6.49333 5.93333 6.2 5.64C5.90667 5.34667 5.52 5.2 5.04 5.2H5V5H11.28V5.2H11.26C10.78 5.2 10.3933 5.34667 10.1 5.64C9.80667 5.93333 9.66 6.32 9.66 6.8V18.76C9.66 19.6667 9.45333 20.48 9.04 21.2C8.64 21.92 8.07333 22.5 7.34 22.94C6.62 23.38 5.78 23.6467 4.82 23.74ZM11.0584 20L11.0784 19.8H11.0984C11.5784 19.8 11.9651 19.6733 12.2584 19.42C12.5518 19.1667 12.6984 18.8 12.6984 18.32V6.8C12.6984 6.32 12.5518 5.93333 12.2584 5.64C11.9651 5.34667 11.5784 5.2 11.0984 5.2L11.0784 5H21.7984L22.3984 9.02H22.1984C21.7984 6.51333 20.2184 5.26 17.4584 5.26H15.7784V11.04H17.5784C18.2451 11.04 18.7784 10.84 19.1784 10.44C19.5784 10.0267 19.7784 9.48667 19.7784 8.82H19.9784V13.74H19.7784C19.7651 13.02 19.5384 12.4333 19.0984 11.98C18.6584 11.5267 18.0784 11.3 17.3584 11.3H15.7784V18.32C15.7784 19.2667 16.2451 19.74 17.1784 19.74H18.0184C19.3118 19.74 20.3384 19.4067 21.0984 18.74C21.8584 18.0733 22.3451 17.0267 22.5584 15.6H22.7584L22.1584 20H11.0584Z" fill="white"/>
<path d="M1.88 25H1.2V32H1.64V26.29H1.68L4.77 32.12H4.95L8.11 26.33H8.15V32H9.06V25H8.37L5.13 31.01H5.09L1.88 25ZM15.5037 29.72V29.51C15.5037 29.0633 15.4403 28.6767 15.3137 28.35C15.187 28.0233 15.0137 27.7533 14.7937 27.54C14.5803 27.3267 14.3303 27.1667 14.0437 27.06C13.757 26.9533 13.4537 26.9 13.1337 26.9C12.7937 26.9 12.4803 26.96 12.1937 27.08C11.907 27.1933 11.657 27.3633 11.4437 27.59C11.2303 27.81 11.0637 28.08 10.9437 28.4C10.8237 28.7133 10.7637 29.07 10.7637 29.47C10.7637 29.8033 10.8137 30.13 10.9137 30.45C11.0203 30.7633 11.177 31.0467 11.3837 31.3C11.597 31.5467 11.8637 31.7467 12.1837 31.9C12.5103 32.0467 12.8937 32.12 13.3337 32.12C13.7603 32.12 14.1537 32.0467 14.5137 31.9C14.8737 31.7467 15.187 31.53 15.4537 31.25L15.1337 30.93C14.9937 31.05 14.8603 31.16 14.7337 31.26C14.6137 31.36 14.4903 31.4433 14.3637 31.51C14.237 31.5767 14.1037 31.63 13.9637 31.67C13.8303 31.7033 13.6803 31.72 13.5137 31.72C13.327 31.72 13.127 31.6933 12.9137 31.64C12.707 31.58 12.5137 31.4767 12.3337 31.33C12.1537 31.1833 12.0037 30.98 11.8837 30.72C11.7637 30.46 11.7037 30.1267 11.7037 29.72H15.5037ZM11.7037 29.32C11.7037 29.0533 11.7303 28.7967 11.7837 28.55C11.8437 28.2967 11.9303 28.0733 12.0437 27.88C12.1637 27.6867 12.3137 27.5333 12.4937 27.42C12.6737 27.3 12.887 27.24 13.1337 27.24C13.607 27.24 13.9737 27.4267 14.2337 27.8C14.5003 28.1667 14.6337 28.6733 14.6337 29.32H11.7037ZM20.9859 32V28.76C20.9859 28.64 20.9759 28.4767 20.9559 28.27C20.9359 28.0567 20.8692 27.85 20.7559 27.65C20.6492 27.4433 20.4759 27.2667 20.2359 27.12C19.9959 26.9667 19.6559 26.89 19.2159 26.89C19.0225 26.8833 18.8059 26.9233 18.5659 27.01C18.3259 27.09 18.0892 27.2467 17.8559 27.48L17.6959 27.64H17.6559V27H16.8059V32H17.6559V28.91C17.6559 28.65 17.6925 28.4267 17.7659 28.24C17.8392 28.0533 17.9392 27.8967 18.0659 27.77C18.1925 27.6433 18.3359 27.55 18.4959 27.49C18.6625 27.43 18.8325 27.4 19.0059 27.4C19.2859 27.4 19.5025 27.4567 19.6559 27.57C19.8092 27.6767 19.9192 27.8033 19.9859 27.95C20.0592 28.0967 20.1025 28.2433 20.1159 28.39C20.1292 28.5367 20.1359 28.6433 20.1359 28.71V32H20.9859ZM22.6164 27V30.25C22.6164 30.37 22.6264 30.5367 22.6464 30.75C22.6731 30.9567 22.7431 31.1633 22.8564 31.37C22.9697 31.57 23.1464 31.7467 23.3864 31.9C23.6331 32.0467 23.9764 32.12 24.4164 32.12C24.6097 32.1267 24.8197 32.0867 25.0464 32C25.2797 31.92 25.5131 31.7633 25.7464 31.53L25.9064 31.37H25.9464V32H26.7964V27H25.9464V30.1C25.9464 30.36 25.9097 30.5833 25.8364 30.77C25.7631 30.9567 25.6664 31.1133 25.5464 31.24C25.4264 31.36 25.2864 31.45 25.1264 31.51C24.9664 31.57 24.7997 31.6 24.6264 31.6C24.3464 31.6 24.1264 31.5467 23.9664 31.44C23.8131 31.3267 23.6964 31.1967 23.6164 31.05C23.5431 30.9033 23.4997 30.76 23.4864 30.62C23.4731 30.4733 23.4664 30.3667 23.4664 30.3V27H22.6164Z" fill="white"/>
</svg>
